<svg xmlns="http://www.w3.org/2000/svg" xmlns:xlink="http://www.w3.org/1999/xlink" viewBox="0 0 1024 1024" width="45" height="45" style="" filter="none">
    
    <g>
    <path d="M512 661.333333c-12.8 0-21.333333-4.266667-29.866667-12.8l-256-256c-12.8-12.8-17.066667-29.866667-8.533333-46.933333 4.266667-17.066667 21.333333-25.6 38.4-25.6h128V128c0-25.6 17.066667-42.666667 42.666667-42.666667h170.666666c25.6 0 42.666667 17.066667 42.666667 42.666667v192h128c17.066667 0 34.133333 8.533333 38.4 25.6 8.533333 17.066667 4.266667 34.133333-8.533333 46.933333l-256 256c-8.533333 8.533333-17.066667 12.8-29.866667 12.8z m-153.6-256l153.6 153.6 153.6-153.6H597.333333c-25.6 0-42.666667-17.066667-42.666666-42.666666V170.666667h-85.333334v192c0 25.6-17.066667 42.666667-42.666666 42.666666H358.4zM896 832H128c-25.6 0-42.666667-17.066667-42.666667-42.666667s17.066667-42.666667 42.666667-42.666666h768c25.6 0 42.666667 17.066667 42.666667 42.666666s-17.066667 42.666667-42.666667 42.666667zM725.333333 981.333333H298.666667c-25.6 0-42.666667-17.066667-42.666667-42.666666s17.066667-42.666667 42.666667-42.666667h426.666666c25.6 0 42.666667 17.066667 42.666667 42.666667s-17.066667 42.666667-42.666667 42.666666z" fill="rgba(9,173,9,1)" p-id="4349" stroke="none"></path>
    </g>
  </svg>