<svg xmlns="http://www.w3.org/2000/svg" xmlns:xlink="http://www.w3.org/1999/xlink" viewBox="0 0 1024 1024" width="36" height="36" style="" filter="none">
    
    <g>
    <path d="M238.933333 307.2a68.266667 68.266667 0 1 0 0-136.533333 68.266667 68.266667 0 0 0 0 136.533333z m546.133334 0a68.266667 68.266667 0 1 0 0-136.533333 68.266667 68.266667 0 0 0 0 136.533333z m178.744889 529.237333l-62.577778-156.444444-58.424889 65.991111-2.844445 25.884444 39.367112 98.417778a45.511111 45.511111 0 1 0 84.48-33.848889z m-48.64-298.382222l-26.282667-114.119111a92.16 92.16 0 0 0-53.361778-63.829333 87.779556 87.779556 0 0 0-79.758222 4.664889 155.818667 155.818667 0 0 0-68.437333 84.536888l-16.042667 48.184889-22.755556 14.506667V375.466667c0-12.515556-10.24-22.755556-22.755555-22.755556H398.222222c-12.515556 0-22.755556 10.24-22.755555 22.755556V512l-22.926223-14.506667-16.042666-48.184889a154.737778 154.737778 0 0 0-68.437334-84.536888c-24.462222-14.222222-53.475556-16.042667-79.758222-4.664889a92.16 92.16 0 0 0-53.361778 63.829333l-26.168888 114.062222c-6.542222 28.444444 1.024 58.595556 20.48 80.668445l95.573333 107.975111 14.392889 131.697778A45.511111 45.511111 0 0 0 284.444444 898.844444c1.706667 0 3.242667-0.170667 4.949334-0.284444a45.454222 45.454222 0 0 0 40.277333-50.232889l-14.392889-131.982222a90.908444 90.908444 0 0 0-22.186666-49.777778L231.537778 596.878222l25.031111-99.953778 9.671111 29.013334c5.802667 17.806222 16.896 33.28 34.816 46.364444l72.704 46.250667c6.542222 4.096 17.180444 6.542222 24.462222 7.111111h227.555556c7.224889-0.568889 17.92-3.015111 24.462222-7.111111l72.647111-46.250667c17.976889-13.084444 29.013333-28.444444 34.872889-46.364444l9.671111-29.013334 25.031111 100.010667-61.553778 69.632c-12.401778 14.108444-20.081778 31.288889-22.186666 49.777778l-14.392889 131.982222a45.511111 45.511111 0 0 0 40.220444 50.232889c1.706667 0.113778 3.299556 0.284444 5.006223 0.284444a45.511111 45.511111 0 0 0 45.226666-40.561777l14.336-131.640889 95.573334-107.975111a91.591111 91.591111 0 0 0 20.48-80.668445z m-792.462223 141.937778l-62.577777 156.444444a45.511111 45.511111 0 1 0 84.48 33.848889l39.424-98.417778-2.844445-25.884444-58.481778-65.991111z" fill="rgba(250,143,20,1)" p-id="5692" stroke="none"></path>
    </g>
  </svg>