<svg xmlns="http://www.w3.org/2000/svg" xmlns:xlink="http://www.w3.org/1999/xlink" viewBox="0 0 32 32" width="36" height="36" style="" filter="none">
    
    <g>
    <path d="M24.224 4c-0.352-1.92-0.448-2.016-2.432-2.016h-3.904c-1.6 0.032-1.856 0.256-2.048 1.984-3.296 0.8-4.256 1.888-4.32 5.248-0.064 0-0.096-0.032-0.128-0.032h-3.264c-1.088 0-1.248 0.864-1.344 1.696-2.368 0.768-3.104 1.76-3.104 4.288v12.896c0 1.536 0.384 1.92 1.888 1.952h6.944v-0.096c0.224 0.064 0.512 0.064 0.832 0.096h13.824c0.352 0 0.672-0.032 1.12-0.064v-20.384c0-3.52-0.864-4.704-4.064-5.568zM9.856 25.056c-1.44 0-1.888 0.352-1.952 1.664v1.056h-2.048c-0.032-0.128-0.096-0.256-0.096-0.416 0-4.224-0.032-8.448 0-12.672 0-1.12 0.448-1.568 1.568-1.568h4.16v3.104c-0.736 0.096-0.864 0.704-0.832 1.344 0 0.768 0.064 1.376 0.832 1.472v0.992c-0.704 0.096-0.896 0.64-0.832 1.376-0.032 0.768 0.096 1.312 0.832 1.408v2.88c-0.224-0.48-0.704-0.64-1.632-0.64zM26.208 27.776h-3.648c0-0.736 0.032-1.44 0-2.144-0.032-1.312-0.416-1.728-1.632-1.728-0.736 0-1.472-0.032-2.208 0-1.024 0.032-1.44 0.448-1.504 1.536v2.336h-3.584c-0.032-0.384-0.064-0.736-0.064-1.088v-17.728c0-1.92 0.768-2.752 2.624-2.784 2.496 0 4.992 0 7.488 0.032 1.76 0 2.56 0.864 2.56 2.688v17.952c0 0.288-0.032 0.576-0.032 0.928zM7.904 19.072c1.024 0.032 1.088-0.64 1.024-1.408 0.064-0.8-0.032-1.44-0.992-1.44-1.024 0-1.088 0.672-1.088 1.472-0.032 0.768 0.096 1.376 1.056 1.376zM7.936 20c-0.992 0-1.12 0.64-1.12 1.472 0 0.8 0.128 1.344 1.088 1.376 1.024 0.032 1.088-0.64 1.024-1.44 0.096-0.8-0.064-1.408-0.992-1.408zM16.96 9.088c-1.344 0-1.504 0.192-1.504 1.824 0 1.568 0.16 1.76 1.568 1.76 1.28-0.032 1.408-0.192 1.408-1.792 0-1.632-0.128-1.824-1.472-1.792zM16.896 18.464c-1.28 0-1.44 0.192-1.44 1.856 0 1.504 0.192 1.728 1.472 1.728 1.376 0 1.504-0.16 1.504-1.824s-0.096-1.76-1.536-1.76zM18.432 15.648c0-1.792-0.032-1.824-1.408-1.856-1.504 0-1.568 0.096-1.568 1.728 0 1.728 0.064 1.792 1.504 1.792 1.408 0 1.472-0.064 1.472-1.664zM22.848 9.088c-1.312 0-1.472 0.192-1.472 1.824 0 1.568 0.16 1.76 1.536 1.76 1.312-0.032 1.44-0.192 1.44-1.792 0-1.632-0.16-1.824-1.504-1.792zM22.816 18.464c-1.28 0-1.44 0.192-1.44 1.856 0 1.504 0.16 1.728 1.472 1.728 1.376 0 1.504-0.16 1.504-1.824s-0.096-1.76-1.536-1.76zM24.352 15.648c0-1.792-0.064-1.824-1.44-1.856-1.472 0-1.536 0.096-1.536 1.728 0 1.728 0.032 1.792 1.472 1.792s1.504-0.064 1.504-1.664z" fill="rgba(250,143,20,1)"></path>
    </g>
  </svg>