<svg xmlns="http://www.w3.org/2000/svg" xmlns:xlink="http://www.w3.org/1999/xlink" viewBox="0 0 32 32" width="23" height="23" style="" filter="none">
    
    <g>
    <path d="M15.776 18.624c-3.776-1.856-10.784-5.312-13.056-6.4-0.384-0.192-0.704 0.032-0.704 0.448v12.672c0 0.448 0.352 0.8 0.8 0.8h26.368c0.448 0 0.8-0.352 0.8-0.768v-12.672c0-0.448-0.32-0.64-0.704-0.448-15.016 6.966-19.246 9.093-23.467 11.235l10.571-4.867c-0.089 0.045-0.193 0.072-0.304 0.072s-0.215-0.027-0.308-0.074l0.004 0.002zM5.728 11.264c3.36 1.664 6.72 3.296 10.080 4.928 0.128 0.064 0.352 0.096 0.48 0.032 4.48-2.208 8.992-4.448 13.504-6.656 0.16-0.064 0.224-0.16 0.224-0.352-0.032-0.672 0-1.824 0-2.592 0-0.448-0.352-0.8-0.8-0.8h-26.432c-0.416 0-0.768 0.352-0.768 0.8v2.624c0 0.096 0.128 0.256 0.224 0.32 1.152 0.576 2.304 1.12 3.488 1.696z" fill="rgba(9,173,9,1)"></path>
    </g>
  </svg>